PathFileType	4	(X/Y/Z)	Beam_150-250.trc
DataRate	CameraRate	NumFrames	NumMarkers	Units	OrigDataRate	OrigDataStartFrame	OrigNumFrames
60	60	7	21	m	60	75	99
Frame#	Time	RHip			RKnee			RAnkle			RBigToe			RSmallToe			RHeel			LHip			LKnee			LAnkle			LBigToe			LSmallToe			LHeel			Neck			Head			Nose			RShoulder			RElbow			RWrist			LShoulder			LElbow			LWrist		
		X1	Y1	Z1	X2	Y2	Z2	X3	Y3	Z3	X4	Y4	Z4	X5	Y5	Z5	X6	Y6	Z6	X7	Y7	Z7	X8	Y8	Z8	X9	Y9	Z9	X10	Y10	Z10	X11	Y11	Z11	X12	Y12	Z12	X13	Y13	Z13	X14	Y14	Z14	X15	Y15	Z15	X16	Y16	Z16	X17	Y17	Z17	X18	Y18	Z18	X19	Y19	Z19	X20	Y20	Z20	X21	Y21	Z21	
75	3.7666666666666666	-0.16864114116729365	0.940445748217135	-0.8388116848761052	-0.12155941383514861	0.5422328818367355	-0.7501771335495521	-0.06578661513169598	0.1393655550006613	-0.7506571560802073	-0.059104874574615135	0.04576083146982152	-0.6226399019158659	-0.09122730203548605	0.05071725802741478	-0.6172226057803589	-0.05419084027229493	0.09631123280054674	-0.7695660644701575	0.024553239546753737	0.8905048954192337	-0.936310958006165	-0.00229156560234925	0.5131148057011397	-0.9036971707538906	-0.027267612596708565	0.15423317265327402	-1.1516150324400467	0.00038334117667344165	0.07147535204502961	-0.9821555293355628	0.013792696047685701	0.07240139624204245	-1.0445014321682553	-0.03417608857686746	0.14584704694320394	-1.1300416312273782	0.08715641001102666	1.4038499783752838	-0.7651237662824951	0.21532553537962096	1.6102684473068527	-0.5625388179078252	0.15658763411010973	1.4454188754252124	-0.5892184069805205	-0.07017581588527504	1.441766136878957	-0.7370520260211977	-0.33741003471254316	1.3813262624643146	-0.7864956481147323	-0.29963581792850774	1.4553169211101677	-0.5585954662164213	0.22416151240529938	1.329264793964224	-0.8608131525656814	0.3529471184061825	1.0843966849944449	-0.9646625101614592	0.4667664220412683	0.8685300758923212	-0.838120188752825
76	3.783333333333333	-0.15993516037381686	0.9344797147424675	-0.8256260733400106	-0.11260781742348679	0.5404087107075065	-0.7351784902496887	-0.058279998509634334	0.1339326601280047	-0.7552852587809736	-0.0573490977707405	0.04010969262355019	-0.6288283657552595	-0.08378167875260663	0.043496987355109665	-0.6231500911007167	-0.04587039095421656	0.08989481562194929	-0.7802570629828525	0.03343302959284353	0.8873617492615621	-0.9171725440410066	0.0017960049560425677	0.5076671440508038	-0.9028476434708479	-0.026970377112630867	0.15748072663664447	-1.1502335108767046	0.002207835860937592	0.07194553223026019	-0.982999424893719	0.014356637874548633	0.07327571066871642	-1.043949688803903	-0.034729555373545905	0.15039639842013763	-1.1357627640244028	0.07639246964480813	1.4088709538252289	-0.7550460141220703	0.19409803981616147	1.6181675492382102	-0.5533953961318014	0.1422271749763691	1.4560126746114141	-0.5805972336546444	-0.08489624071374065	1.4373354001367085	-0.7352332112712563	-0.3480764164260195	1.3678705388559005	-0.7714654328374209	-0.32183986038095513	1.439421364380026	-0.5575414638646784	0.22067090468694822	1.3390482028759914	-0.840791030455834	0.3565878030733019	1.1019505989548244	-0.9577891035017148	0.4781620535567191	0.8923550136174119	-0.8382090335089845
77	3.8	-0.1516713139227114	0.9286372709588284	-0.8135318034813954	-0.10624655499420838	0.537926564365229	-0.7217974832339452	-0.053664605440359336	0.1294541316747747	-0.7578695296322564	-0.05597323330485731	0.03661945098853983	-0.6314904387452476	-0.07849977886034554	0.03811646281013707	-0.6263343859998092	-0.04084790523800447	0.0857353053183964	-0.7868429777377757	0.04198176268799758	0.885533363622304	-0.8976704929912626	0.006223689496409829	0.5013856777711941	-0.9009324369458289	-0.0256171139956711	0.16199147375396458	-1.1480733542935035	0.0032490004743778674	0.07243075439964125	-0.9842137715406973	0.014233846206241622	0.07504752951141304	-1.0432512512753893	-0.03462362802370293	0.1554916455123564	-1.1436249621506471	0.0647102224536581	1.4129985436229147	-0.7437866049178958	0.17155728252752264	1.6250414036699734	-0.5457047489610102	0.126546526457323	1.4653392482700167	-0.5718932499703607	-0.09988423371948787	1.432507600863197	-0.7349529722987412	-0.35777568510291	1.3544989861320407	-0.7558323638334609	-0.3441222329556135	1.424939955595538	-0.5566969892603075	0.2154771358727749	1.3490654338879617	-0.823228490026689	0.361789161828743	1.1211410182249621	-0.9448586550643396	0.4909792645030855	0.9197017263824093	-0.8380071736001956
78	3.816666666666667	-0.14430843666335583	0.9233514610864667	-0.8026167900019102	-0.10183913070666986	0.5357201119239746	-0.7092883110693925	-0.05150107609815171	0.12627653693815719	-0.7584674924794095	-0.054641725110021105	0.035338776017201826	-0.6308762550940393	-0.0754275937685825	0.03456155537837449	-0.6271668042802339	-0.03872076613584075	0.08349525883476139	-0.790026064359439	0.05052369254863969	0.8852524669676983	-0.8781334138425955	0.011541451913186564	0.49521434630231465	-0.8969196868895828	-0.02296370127601296	0.16829685688511042	-1.1441426444929825	0.0037218990454644277	0.07317281263709717	-0.9854364134043712	0.01365702488393635	0.07821941258959837	-1.04083001575558	-0.033412190209857716	0.1612380888949449	-1.15285588369533	0.052560976098955915	1.4159292890366426	-0.7319514924540167	0.1474595914276689	1.6309689452281682	-0.5381399977289819	0.10940274299546927	1.4729426949444786	-0.5622294123899898	-0.11458250153123321	1.4279190174742806	-0.7327214231486627	-0.36596427950003807	1.3412915809476385	-0.7412125867845458	-0.3659146716518427	1.4101297830959414	-0.5544111812067763	0.2072309198243619	1.3590565156599022	-0.8121611547486756	0.36750243447361497	1.142891822588684	-0.9282908864424875	0.5051981453237503	0.9512955706361549	-0.8357542722861233
79	3.8333333333333335	-0.1377630793517512	0.9189394221857861	-0.7929299120963145	-0.09848863278694195	0.5342596006344018	-0.6972491158783508	-0.051037805279301116	0.12434028335478635	-0.7578285050154402	-0.05376747320310528	0.03560280195865389	-0.628279618940151	-0.07409844179903674	0.032135243850287355	-0.626760406254643	-0.03842812079976366	0.08270974759772476	-0.7911702417854177	0.05903719217869825	0.8864363028496023	-0.8595822666820451	0.018138526638035175	0.49033959856704945	-0.88911130879305	-0.01887584900857142	0.1767432779815926	-1.1371919873239074	0.0038851029602588174	0.0743180464909538	-0.9860852050072023	0.013028158906448555	0.08296822985436125	-1.035336200203947	-0.03047585300024385	0.16776809223728117	-1.1616702340101206	0.04060720232845773	1.4176041864507374	-0.7203421439749006	0.12156277585879707	1.6359301138449263	-0.5291108806717688	0.09094770974753567	1.478958899159953	-0.5507707413251347	-0.12831768096863405	1.4242443449992694	-0.7252142873592637	-0.3723756237625675	1.3280491736179851	-0.7291926549148351	-0.38676757424928415	1.3936738914014775	-0.549200208625435	0.195918316973624	1.3689532805836138	-0.8077793810524453	0.3723571667466903	1.1677668295864305	-0.9113664483180371	0.5206636644116268	0.9871037529388482	-0.8308617338519938
80	3.85	-0.13140985404787836	0.9154998055238367	-0.7842470581232874	-0.09536120640430229	0.5331406078966082	-0.6862892131238376	-0.051424578641363856	0.12341763350625816	-0.7568404729226152	-0.05350247665983793	0.03650062084902684	-0.6244992634857608	-0.07403600183850013	0.03036778924770636	-0.6263511842663495	-0.0386508466890014	0.08300412378901607	-0.7914575057640175	0.06726359135835591	0.8886943315921972	-0.8432677492295025	0.02610979667129096	0.487506440656711	-0.8759539405373032	-0.01328385112292961	0.18727774113687237	-1.1261451956586954	0.004093287526889372	0.07597010332942174	-0.9852205176043685	0.012969146502304749	0.08910067185410954	-1.0263780817786365	-0.025341138312680804	0.17558591534277898	-1.167053497664785	0.02943687001258857	1.418215920380176	-0.7095175009070795	0.09425458350486507	1.6397819160310307	-0.5178160646068917	0.0719838469720592	1.4837348847200442	-0.5375436532403215	-0.14058163289407505	1.4217020750670921	-0.7113678993863671	-0.3773624909763766	1.3145152745603355	-0.7196595972664677	-0.4062793323584787	1.375295311901947	-0.5402326180722988	0.1825467832220996	1.3787594883169039	-0.807400059945282	0.37529933008329497	1.195659750191569	-0.8960662185500122	0.537118203900849	1.026443848777745	-0.82347931968859
81	3.8666666666666663	-0.12450111842313438	0.9129775510135709	-0.7759414067724595	-0.09240254360550434	0.5309629319708126	-0.678610581724161	-0.051949478828348696	0.12350531921532118	-0.7560067765960494	-0.05354413273541839	0.03736953718364615	-0.6197449001263841	-0.07502193566491104	0.029397825817623166	-0.6267774686972943	-0.038462469407739036	0.08424475133708952	-0.7916095014385923	0.07576565940159116	0.8910999945175482	-0.8278505144951971	0.03518257913351418	0.48675161239286246	-0.8567413959661344	-0.006331228068726328	0.19931958521753543	-1.1104130996432495	0.004886283230112103	0.07830350893062878	-0.9814622513202376	0.01427874799693701	0.09610418118017387	-1.0146354718053792	-0.01797560739241444	0.18527059160469933	-1.1654847423758963	0.019266439059435092	1.4181670799373667	-0.6993375771044741	0.06663887221018874	1.6425400178257845	-0.5042854196251251	0.053493852240014406	1.4874639203072921	-0.5233248725307417	-0.15135250238143502	1.4198626043528253	-0.6931344208838663	-0.3817771684340074	1.3005523043878562	-0.711522460011361	-0.42363239566085975	1.355315913767733	-0.5263582140520298	0.16850317728688177	1.3883035469489602	-0.8073051500761733	0.37632942641123535	1.225915331077022	-0.8808703602760156	0.5539452458418284	1.068513787999029	-0.8133302997958154
